<mxfile host="app.diagrams.net" modified="2020-11-18T14:50:23.933Z" agent="5.0 (Windows NT 10.0; Win64; x64) AppleWebKit/537.36 (KHTML, like Gecko) Chrome/86.0.4240.198 Safari/537.36" etag="4AmV7w7vY0E3gIMC3bQn" version="13.9.9" type="github">
  <diagram id="gGCVHq0ZIdAEoqzrqRfJ" name="Página-1">
    <mxGraphModel dx="868" dy="488" grid="1" gridSize="10" guides="1" tooltips="1" connect="1" arrows="1" fold="1" page="1" pageScale="1" pageWidth="827" pageHeight="1169" math="0" shadow="0">
      <root>
        <mxCell id="0" />
        <mxCell id="1" parent="0" />
        <mxCell id="Lv3uh-DJdfXvWYIIZacH-1" value="Conversor Celsius/fahrenheit&lt;br&gt;Autor: Juan Moisés&lt;br&gt;RA:&amp;nbsp;&lt;b&gt;&lt;span style=&quot;font-size: 9.0pt ; line-height: 107% ; font-family: &amp;#34;calibri&amp;#34; , sans-serif ; color: #00b0f0&quot;&gt;731921026&lt;/span&gt;&lt;/b&gt;&lt;br&gt;Data: 20/09/2020&lt;br&gt;Descrição: Fahrenheit = (Celcius*9/5)+32" style="text;html=1;strokeColor=#82b366;fillColor=#d5e8d4;align=center;verticalAlign=middle;whiteSpace=wrap;rounded=0;fontStyle=1;" parent="1" vertex="1">
          <mxGeometry x="80" y="70" width="260" height="100" as="geometry" />
        </mxCell>
        <mxCell id="Lv3uh-DJdfXvWYIIZacH-2" style="edgeStyle=orthogonalEdgeStyle;rounded=0;orthogonalLoop=1;jettySize=auto;html=1;exitX=0.5;exitY=1;exitDx=0;exitDy=0;exitPerimeter=0;entryX=0.5;entryY=0;entryDx=0;entryDy=0;fontStyle=1" parent="1" source="Lv3uh-DJdfXvWYIIZacH-3" target="Lv3uh-DJdfXvWYIIZacH-5" edge="1">
          <mxGeometry relative="1" as="geometry" />
        </mxCell>
        <mxCell id="Lv3uh-DJdfXvWYIIZacH-3" value="Inicio" style="strokeWidth=2;html=1;shape=mxgraph.flowchart.start_1;whiteSpace=wrap;fillColor=#FFFFFF;strokeColor=#141414;shadow=1;fontStyle=1" parent="1" vertex="1">
          <mxGeometry x="130" y="190" width="100" height="60" as="geometry" />
        </mxCell>
        <mxCell id="Lv3uh-DJdfXvWYIIZacH-4" style="edgeStyle=orthogonalEdgeStyle;rounded=0;orthogonalLoop=1;jettySize=auto;html=1;exitX=0.5;exitY=1;exitDx=0;exitDy=0;entryX=0.495;entryY=0.242;entryDx=0;entryDy=0;entryPerimeter=0;fontStyle=1" parent="1" source="Lv3uh-DJdfXvWYIIZacH-5" target="Lv3uh-DJdfXvWYIIZacH-7" edge="1">
          <mxGeometry relative="1" as="geometry" />
        </mxCell>
        <mxCell id="Lv3uh-DJdfXvWYIIZacH-5" value="&amp;nbsp; &amp;nbsp;valorCelcius,valorFahrenheit" style="shape=internalStorage;whiteSpace=wrap;html=1;dx=15;dy=15;rounded=1;arcSize=8;strokeWidth=2;fontStyle=1" parent="1" vertex="1">
          <mxGeometry x="82.5" y="290" width="195" height="70" as="geometry" />
        </mxCell>
        <mxCell id="Lv3uh-DJdfXvWYIIZacH-6" style="edgeStyle=orthogonalEdgeStyle;rounded=0;orthogonalLoop=1;jettySize=auto;html=1;exitX=0.5;exitY=1;exitDx=0;exitDy=0;fontStyle=1" parent="1" source="Lv3uh-DJdfXvWYIIZacH-7" target="Lv3uh-DJdfXvWYIIZacH-9" edge="1">
          <mxGeometry relative="1" as="geometry" />
        </mxCell>
        <mxCell id="Lv3uh-DJdfXvWYIIZacH-7" value="valorCelcius" style="html=1;strokeWidth=2;shape=manualInput;whiteSpace=wrap;rounded=1;size=26;arcSize=11;fontStyle=1" parent="1" vertex="1">
          <mxGeometry x="130" y="400" width="100" height="60" as="geometry" />
        </mxCell>
        <mxCell id="Lv3uh-DJdfXvWYIIZacH-8" style="edgeStyle=orthogonalEdgeStyle;rounded=0;orthogonalLoop=1;jettySize=auto;html=1;exitX=0.5;exitY=1;exitDx=0;exitDy=0;fontStyle=1" parent="1" source="Lv3uh-DJdfXvWYIIZacH-9" target="Lv3uh-DJdfXvWYIIZacH-32" edge="1">
          <mxGeometry relative="1" as="geometry" />
        </mxCell>
        <mxCell id="Lv3uh-DJdfXvWYIIZacH-9" value="valorFahrenheit = (valorCelcius*9/5)+32" style="rounded=1;whiteSpace=wrap;html=1;absoluteArcSize=1;arcSize=14;strokeWidth=2;fontStyle=1" parent="1" vertex="1">
          <mxGeometry x="70" y="520" width="220" height="95" as="geometry" />
        </mxCell>
        <mxCell id="Lv3uh-DJdfXvWYIIZacH-10" value="" style="edgeStyle=orthogonalEdgeStyle;rounded=0;orthogonalLoop=1;jettySize=auto;html=1;fontStyle=1" parent="1" source="Lv3uh-DJdfXvWYIIZacH-32" target="Lv3uh-DJdfXvWYIIZacH-33" edge="1">
          <mxGeometry relative="1" as="geometry" />
        </mxCell>
        <mxCell id="Lv3uh-DJdfXvWYIIZacH-11" value="" style="shape=table;html=1;whiteSpace=wrap;startSize=0;container=1;collapsible=0;childLayout=tableLayout;fillColor=#d5e8d4;strokeColor=#82b366;fontStyle=0" parent="1" vertex="1">
          <mxGeometry x="400" y="240" width="330" height="160" as="geometry" />
        </mxCell>
        <mxCell id="Lv3uh-DJdfXvWYIIZacH-12" value="" style="shape=partialRectangle;html=1;whiteSpace=wrap;collapsible=0;dropTarget=0;pointerEvents=0;fillColor=none;top=0;left=0;bottom=0;right=0;points=[[0,0.5],[1,0.5]];portConstraint=eastwest;" parent="Lv3uh-DJdfXvWYIIZacH-11" vertex="1">
          <mxGeometry width="330" height="40" as="geometry" />
        </mxCell>
        <mxCell id="Lv3uh-DJdfXvWYIIZacH-13" value="&lt;b&gt;Processo&lt;/b&gt;" style="shape=partialRectangle;html=1;whiteSpace=wrap;connectable=0;overflow=hidden;fillColor=none;top=0;left=0;bottom=0;right=0;" parent="Lv3uh-DJdfXvWYIIZacH-12" vertex="1">
          <mxGeometry width="71" height="40" as="geometry" />
        </mxCell>
        <mxCell id="Lv3uh-DJdfXvWYIIZacH-14" value="&lt;b&gt;valorCelcius&lt;/b&gt;" style="shape=partialRectangle;html=1;whiteSpace=wrap;connectable=0;overflow=hidden;fillColor=none;top=0;left=0;bottom=0;right=0;" parent="Lv3uh-DJdfXvWYIIZacH-12" vertex="1">
          <mxGeometry x="71" width="82" height="40" as="geometry" />
        </mxCell>
        <mxCell id="Lv3uh-DJdfXvWYIIZacH-15" value="&lt;b&gt;valorFahrenheit&lt;/b&gt;" style="shape=partialRectangle;html=1;whiteSpace=wrap;connectable=0;overflow=hidden;fillColor=none;top=0;left=0;bottom=0;right=0;" parent="Lv3uh-DJdfXvWYIIZacH-12" vertex="1">
          <mxGeometry x="153" width="106" height="40" as="geometry" />
        </mxCell>
        <mxCell id="Lv3uh-DJdfXvWYIIZacH-16" value="&lt;b&gt;Saída&lt;/b&gt;" style="shape=partialRectangle;html=1;whiteSpace=wrap;connectable=0;overflow=hidden;fillColor=none;top=0;left=0;bottom=0;right=0;" parent="Lv3uh-DJdfXvWYIIZacH-12" vertex="1">
          <mxGeometry x="259" width="71" height="40" as="geometry" />
        </mxCell>
        <mxCell id="Lv3uh-DJdfXvWYIIZacH-17" value="" style="shape=partialRectangle;html=1;whiteSpace=wrap;collapsible=0;dropTarget=0;pointerEvents=0;fillColor=none;top=0;left=0;bottom=0;right=0;points=[[0,0.5],[1,0.5]];portConstraint=eastwest;" parent="Lv3uh-DJdfXvWYIIZacH-11" vertex="1">
          <mxGeometry y="40" width="330" height="40" as="geometry" />
        </mxCell>
        <mxCell id="Lv3uh-DJdfXvWYIIZacH-18" value="1" style="shape=partialRectangle;html=1;whiteSpace=wrap;connectable=0;overflow=hidden;fillColor=none;top=0;left=0;bottom=0;right=0;" parent="Lv3uh-DJdfXvWYIIZacH-17" vertex="1">
          <mxGeometry width="71" height="40" as="geometry" />
        </mxCell>
        <mxCell id="Lv3uh-DJdfXvWYIIZacH-19" value="(27)" style="shape=partialRectangle;html=1;whiteSpace=wrap;connectable=0;overflow=hidden;fillColor=none;top=0;left=0;bottom=0;right=0;" parent="Lv3uh-DJdfXvWYIIZacH-17" vertex="1">
          <mxGeometry x="71" width="82" height="40" as="geometry" />
        </mxCell>
        <mxCell id="Lv3uh-DJdfXvWYIIZacH-20" value="" style="shape=partialRectangle;html=1;whiteSpace=wrap;connectable=0;overflow=hidden;fillColor=none;top=0;left=0;bottom=0;right=0;" parent="Lv3uh-DJdfXvWYIIZacH-17" vertex="1">
          <mxGeometry x="153" width="106" height="40" as="geometry" />
        </mxCell>
        <mxCell id="Lv3uh-DJdfXvWYIIZacH-21" value="" style="shape=partialRectangle;html=1;whiteSpace=wrap;connectable=0;overflow=hidden;fillColor=none;top=0;left=0;bottom=0;right=0;" parent="Lv3uh-DJdfXvWYIIZacH-17" vertex="1">
          <mxGeometry x="259" width="71" height="40" as="geometry" />
        </mxCell>
        <mxCell id="Lv3uh-DJdfXvWYIIZacH-22" style="shape=partialRectangle;html=1;whiteSpace=wrap;collapsible=0;dropTarget=0;pointerEvents=0;fillColor=none;top=0;left=0;bottom=0;right=0;points=[[0,0.5],[1,0.5]];portConstraint=eastwest;" parent="Lv3uh-DJdfXvWYIIZacH-11" vertex="1">
          <mxGeometry y="80" width="330" height="40" as="geometry" />
        </mxCell>
        <mxCell id="Lv3uh-DJdfXvWYIIZacH-23" value="2" style="shape=partialRectangle;html=1;whiteSpace=wrap;connectable=0;overflow=hidden;fillColor=none;top=0;left=0;bottom=0;right=0;" parent="Lv3uh-DJdfXvWYIIZacH-22" vertex="1">
          <mxGeometry width="71" height="40" as="geometry" />
        </mxCell>
        <mxCell id="Lv3uh-DJdfXvWYIIZacH-24" value="27" style="shape=partialRectangle;html=1;whiteSpace=wrap;connectable=0;overflow=hidden;fillColor=none;top=0;left=0;bottom=0;right=0;" parent="Lv3uh-DJdfXvWYIIZacH-22" vertex="1">
          <mxGeometry x="71" width="82" height="40" as="geometry" />
        </mxCell>
        <mxCell id="Lv3uh-DJdfXvWYIIZacH-25" value="&lt;b&gt;(C°*9/5)+32&lt;/b&gt;" style="shape=partialRectangle;html=1;whiteSpace=wrap;connectable=0;overflow=hidden;fillColor=none;top=0;left=0;bottom=0;right=0;" parent="Lv3uh-DJdfXvWYIIZacH-22" vertex="1">
          <mxGeometry x="153" width="106" height="40" as="geometry" />
        </mxCell>
        <mxCell id="Lv3uh-DJdfXvWYIIZacH-26" style="shape=partialRectangle;html=1;whiteSpace=wrap;connectable=0;overflow=hidden;fillColor=none;top=0;left=0;bottom=0;right=0;" parent="Lv3uh-DJdfXvWYIIZacH-22" vertex="1">
          <mxGeometry x="259" width="71" height="40" as="geometry" />
        </mxCell>
        <mxCell id="Lv3uh-DJdfXvWYIIZacH-27" style="shape=partialRectangle;html=1;whiteSpace=wrap;collapsible=0;dropTarget=0;pointerEvents=0;fillColor=none;top=0;left=0;bottom=0;right=0;points=[[0,0.5],[1,0.5]];portConstraint=eastwest;" parent="Lv3uh-DJdfXvWYIIZacH-11" vertex="1">
          <mxGeometry y="120" width="330" height="40" as="geometry" />
        </mxCell>
        <mxCell id="Lv3uh-DJdfXvWYIIZacH-28" value="3" style="shape=partialRectangle;html=1;whiteSpace=wrap;connectable=0;overflow=hidden;fillColor=none;top=0;left=0;bottom=0;right=0;" parent="Lv3uh-DJdfXvWYIIZacH-27" vertex="1">
          <mxGeometry width="71" height="40" as="geometry" />
        </mxCell>
        <mxCell id="Lv3uh-DJdfXvWYIIZacH-29" value="27" style="shape=partialRectangle;html=1;whiteSpace=wrap;connectable=0;overflow=hidden;fillColor=none;top=0;left=0;bottom=0;right=0;" parent="Lv3uh-DJdfXvWYIIZacH-27" vertex="1">
          <mxGeometry x="71" width="82" height="40" as="geometry" />
        </mxCell>
        <mxCell id="Lv3uh-DJdfXvWYIIZacH-30" value="(27*9/5)+32" style="shape=partialRectangle;html=1;whiteSpace=wrap;connectable=0;overflow=hidden;fillColor=none;top=0;left=0;bottom=0;right=0;" parent="Lv3uh-DJdfXvWYIIZacH-27" vertex="1">
          <mxGeometry x="153" width="106" height="40" as="geometry" />
        </mxCell>
        <mxCell id="Lv3uh-DJdfXvWYIIZacH-31" value="&lt;b&gt;80,6&lt;/b&gt;" style="shape=partialRectangle;html=1;whiteSpace=wrap;connectable=0;overflow=hidden;fillColor=none;top=0;left=0;bottom=0;right=0;" parent="Lv3uh-DJdfXvWYIIZacH-27" vertex="1">
          <mxGeometry x="259" width="71" height="40" as="geometry" />
        </mxCell>
        <mxCell id="Lv3uh-DJdfXvWYIIZacH-32" value="valorfahrenheit" style="strokeWidth=2;html=1;shape=mxgraph.flowchart.document2;whiteSpace=wrap;size=0.25;fontStyle=1" parent="1" vertex="1">
          <mxGeometry x="130" y="680" width="100" height="60" as="geometry" />
        </mxCell>
        <mxCell id="Lv3uh-DJdfXvWYIIZacH-33" value="Fim" style="strokeWidth=2;html=1;shape=mxgraph.flowchart.start_1;whiteSpace=wrap;fontStyle=1" parent="1" vertex="1">
          <mxGeometry x="130" y="800" width="100" height="60" as="geometry" />
        </mxCell>
        <mxCell id="Lv3uh-DJdfXvWYIIZacH-34" value="&lt;b&gt;Teste de Mesa&lt;/b&gt;" style="text;html=1;strokeColor=none;fillColor=none;align=center;verticalAlign=middle;whiteSpace=wrap;rounded=0;shadow=1;" parent="1" vertex="1">
          <mxGeometry x="490" y="190" width="100" height="20" as="geometry" />
        </mxCell>
        <mxCell id="Lv3uh-DJdfXvWYIIZacH-35" value="&lt;font style=&quot;font-size: 20px&quot;&gt;1&lt;/font&gt;" style="text;html=1;strokeColor=none;fillColor=none;align=center;verticalAlign=middle;whiteSpace=wrap;rounded=0;shadow=1;fontStyle=1;fontColor=#FF0000;strokeWidth=1;" parent="1" vertex="1">
          <mxGeometry x="320" y="420" width="40" height="20" as="geometry" />
        </mxCell>
        <mxCell id="Lv3uh-DJdfXvWYIIZacH-36" value="&lt;font style=&quot;font-size: 20px&quot;&gt;2&lt;/font&gt;" style="text;html=1;strokeColor=none;fillColor=none;align=center;verticalAlign=middle;whiteSpace=wrap;rounded=0;shadow=1;fontStyle=1;fontColor=#FF0000;" parent="1" vertex="1">
          <mxGeometry x="320" y="557.5" width="40" height="20" as="geometry" />
        </mxCell>
        <mxCell id="Lv3uh-DJdfXvWYIIZacH-37" value="&lt;font style=&quot;font-size: 20px&quot;&gt;3&lt;/font&gt;" style="text;html=1;strokeColor=none;fillColor=none;align=center;verticalAlign=middle;whiteSpace=wrap;rounded=0;shadow=1;fontStyle=1;fontColor=#FF0000;fontSize=18;" parent="1" vertex="1">
          <mxGeometry x="320" y="700" width="40" height="20" as="geometry" />
        </mxCell>
      </root>
    </mxGraphModel>
  </diagram>
</mxfile>
